<?xml version="1.0" encoding="UTF-8" standalone="no"?>
<svg
   version="1.0"
   width="1024.000000pt"
   height="1024.000000pt"
   viewBox="0 0 1024.000000 1024.000000"
   preserveAspectRatio="xMidYMid meet"
   id="svg17"
   sodipodi:docname="Logo Mechka.svg"
   inkscape:version="1.3 (0e150ed6c4, 2023-07-21)"
   xmlns:inkscape="http://www.inkscape.org/namespaces/inkscape"
   xmlns:sodipodi="http://sodipodi.sourceforge.net/DTD/sodipodi-0.dtd"
   xmlns:xlink="http://www.w3.org/1999/xlink"
   xmlns="http://www.w3.org/2000/svg"
   xmlns:svg="http://www.w3.org/2000/svg">
  <defs
     id="defs17">
    <linearGradient
       id="linearGradient27"
       inkscape:collect="always">
      <stop
         style="stop-color:#7e53be;stop-opacity:1;"
         offset="0.3125"
         id="stop27" />
      <stop
         style="stop-color:#d65db1;stop-opacity:0.7764706;"
         offset="0.5625"
         id="stop29" />
      <stop
         style="stop-color:#ff6f91;stop-opacity:0.66274512;"
         offset="0.64999998"
         id="stop30" />
      <stop
         style="stop-color:#ff9671;stop-opacity:0.60784316;"
         offset="0.77812499"
         id="stop31" />
      <stop
         style="stop-color:#ea7474;stop-opacity:0.58039218;"
         offset="0.86562496"
         id="stop32" />
      <stop
         style="stop-color:#e1df09;stop-opacity:0.55421686;"
         offset="1"
         id="stop28" />
    </linearGradient>
    <linearGradient
       inkscape:collect="always"
       xlink:href="#linearGradient27"
       id="linearGradient28"
       x1="1569.1627"
       y1="1730.9321"
       x2="8654.6602"
       y2="7829.6367"
       gradientUnits="userSpaceOnUse" />
  </defs>
  <sodipodi:namedview
     id="namedview17"
     pagecolor="#ffffff"
     bordercolor="#000000"
     borderopacity="0.25"
     inkscape:showpageshadow="2"
     inkscape:pageopacity="0.0"
     inkscape:pagecheckerboard="0"
     inkscape:deskcolor="#d1d1d1"
     inkscape:document-units="pt"
     showgrid="false"
     inkscape:zoom="0.327831"
     inkscape:cx="466.70388"
     inkscape:cy="840.37202"
     inkscape:window-width="1600"
     inkscape:window-height="829"
     inkscape:window-x="-8"
     inkscape:window-y="-8"
     inkscape:window-maximized="1"
     inkscape:current-layer="g17" />
  <g
     transform="translate(0.000000,1024.000000) scale(0.100000,-0.100000)"
     fill="#000000"
     stroke="none"
     id="g17">
    <path
       d="m 4830,8090 c -213,-14 -499,-62 -695,-116 -259,-72 -568,-207 -825,-362 l -115,-69 -75,57 c -115,87 -272,198 -403,284 l -118,77 -37,-23 c -263,-160 -583,-365 -606,-388 -36,-35 -27,-59 12,-32 86,61 641,384 601,350 -9,-7 -14,-19 -12,-25 3,-7 -2,-13 -10,-13 -8,0 -14,-8 -13,-17 0,-9 -8,-22 -19,-27 -12,-6 -19,-19 -17,-28 2,-10 -1,-18 -6,-18 -5,0 -56,-44 -112,-97 -250,-237 -253,-241 -217,-296 9,-15 17,-31 17,-37 0,-7 8,-9 22,-4 22,7 22,6 5,-17 -34,-47 -57,-98 -63,-141 -4,-24 -15,-49 -26,-56 -10,-7 -18,-25 -19,-40 0,-24 -1,-25 -9,-7 -8,19 -9,19 -9,-2 -1,-13 -7,-23 -15,-23 -7,0 -21,-11 -30,-25 -9,-14 -21,-25 -27,-25 -6,0 -18,-8 -27,-17 -16,-16 -16,-16 2,-10 13,5 17,3 13,-7 -3,-8 5,-31 19,-52 14,-20 23,-38 22,-40 -2,-2 -35,22 -73,53 -39,30 -80,63 -93,73 l -23,19 91,87 c 51,49 118,109 150,133 l 59,45 -37,46 c -20,25 -39,47 -42,50 -3,3 -27,31 -54,63 -54,64 -71,70 -33,10 13,-21 36,-62 51,-91 l 27,-53 -117,-132 c -64,-73 -121,-142 -127,-154 -7,-17 -5,-31 13,-65 42,-81 109,-173 219,-302 61,-71 111,-133 111,-139 0,-15 -109,-119 -222,-210 -147,-119 -183,-182 -172,-301 7,-83 1,-102 -65,-181 -75,-91 -143,-316 -157,-519 -16,-247 61,-336 327,-380 l 36,-6 5,-68 c 5,-72 30,-132 70,-169 42,-40 128,-73 189,-73 35,0 61,-5 68,-13 6,-8 17,-90 25,-183 13,-167 10,-254 -13,-354 -19,-82 -15,-107 22,-132 108,-73 226,-286 452,-808 142,-330 139,-324 286,-456 69,-62 150,-142 180,-176 97,-114 127,-137 252,-198 157,-75 279,-119 1490,-528 l 78,-27 102,52 c 129,66 370,200 523,290 66,39 155,89 199,113 183,98 180,95 270,230 96,145 183,302 250,450 76,170 102,215 157,281 29,34 88,108 132,163 93,119 196,242 521,621 132,154 267,314 300,355 33,41 73,90 90,109 33,37 148,97 154,80 3,-11 -95,-144 -234,-314 -50,-60 -106,-130 -125,-155 -19,-25 -138,-169 -265,-320 -458,-547 -604,-731 -655,-824 -17,-33 -44,-75 -58,-94 -15,-20 -22,-33 -17,-31 35,14 348,209 428,266 243,171 545,392 610,444 40,31 73,56 75,55 1,-2 -62,-144 -141,-317 -144,-314 -297,-662 -297,-674 0,-11 74,7 92,22 9,8 32,51 51,96 20,45 74,165 122,267 48,102 111,241 142,310 30,69 82,181 114,249 33,68 59,126 59,128 0,18 112,157 198,245 l 104,107 -12,68 c -8,37 -13,116 -13,174 0,112 19,190 69,291 13,25 26,65 30,88 8,48 19,55 95,63 146,14 241,102 264,244 7,43 20,53 77,53 49,0 135,40 176,81 61,61 76,100 80,211 8,201 -63,449 -177,618 -47,69 -51,83 -60,201 -15,175 -69,251 -278,389 l -134,87 138,165 c 76,90 162,194 192,231 l 53,68 -85,127 c -158,234 -162,266 -48,384 28,30 41,51 36,57 -6,5 -136,85 -290,178 -154,93 -317,194 -363,223 -74,48 -84,51 -100,38 -9,-8 -73,-50 -142,-93 -194,-121 -277,-175 -379,-242 -52,-35 -98,-63 -101,-63 -4,0 -61,32 -126,71 -594,356 -1268,515 -1984,469 z m 615,-65 c 532,-60 955,-209 1415,-498 194,-122 481,-363 635,-533 115,-127 108,-116 89,-157 -18,-38 -13,-70 9,-61 8,3 14,-2 14,-10 0,-8 -4,-13 -9,-10 -11,7 -10,-3 2,-27 7,-13 7,-19 1,-19 -6,0 -22,22 -35,48 -46,91 -315,353 -551,537 -439,342 -968,557 -1550,631 -172,22 -613,25 -780,6 -680,-78 -1252,-342 -1785,-823 -280,-252 -279,-251 -296,-296 -9,-24 -21,-42 -27,-40 -5,1 -15,20 -22,40 -12,34 -11,42 13,89 32,64 119,157 289,310 209,186 404,321 674,466 356,190 783,317 1184,351 72,6 150,13 175,15 86,8 426,-4 555,-19 z m 35,-140 c 555,-73 1095,-301 1519,-640 106,-84 300,-257 381,-339 l 54,-56 -23,-16 c -13,-9 -49,-38 -82,-65 -32,-27 -65,-49 -73,-49 -8,0 -39,28 -70,62 -31,34 -58,59 -61,56 -6,-5 101,-151 114,-156 5,-2 56,33 114,76 l 106,80 26,-28 c 15,-16 26,-33 24,-39 -7,-20 -194,-151 -230,-161 -50,-14 -72,-4 -64,27 14,57 -177,270 -382,426 -231,175 -377,261 -610,361 -389,167 -605,212 -1083,223 -361,8 -581,-14 -858,-88 -211,-56 -498,-179 -727,-314 -152,-89 -453,-314 -580,-433 l -88,-83 28,-29 c 24,-25 26,-32 15,-45 -17,-21 -25,-17 -152,72 -69,48 -108,82 -108,94 0,9 4,19 9,21 5,2 60,50 122,108 361,338 553,476 903,651 324,162 688,263 1071,298 147,14 557,6 705,-14 z m 2089,-247 c 1,-54 0,-58 -21,-56 -13,1 -50,-16 -83,-39 -33,-22 -78,-52 -100,-66 -22,-14 -62,-43 -90,-63 -27,-21 -44,-30 -37,-22 7,9 11,21 10,28 -2,7 3,15 11,18 9,3 11,0 6,-8 -5,-8 -3,-11 6,-8 8,3 13,12 13,21 -1,9 2,14 7,11 19,-11 30,8 12,20 -41,28 -106,28 -83,1 9,-10 6,-16 -9,-24 -26,-14 -34,-14 -25,2 5,7 0,6 -11,-3 -11,-9 -16,-10 -11,-2 4,6 3,12 -2,12 -5,0 -14,-11 -20,-25 -12,-25 -32,-34 -32,-14 0,5 5,7 12,3 7,-4 8,-3 4,5 -4,6 -12,8 -18,5 -6,-4 -13,-3 -17,2 -3,5 -25,22 -48,37 -44,28 -57,53 -24,44 13,-3 18,0 15,8 -3,6 12,23 33,37 21,15 71,50 112,78 41,29 142,95 225,147 l 151,94 6,-93 c 4,-51 7,-119 8,-150 z m -4863,-14 c 19,-20 34,-43 34,-51 0,-8 7,-28 16,-46 16,-31 16,-32 -2,-16 -11,9 -45,31 -77,49 -49,27 -58,36 -53,54 3,12 6,27 6,34 0,24 42,11 76,-24 z m 2678,-79 c 114,-5 154,-10 246,-31 23,-5 21,-7 -20,-24 -144,-61 -480,-190 -492,-190 -34,0 -500,238 -473,241 6,1 105,5 220,9 207,6 263,6 519,-5 z m 1812,-129 c 3,-8 12,-12 21,-9 10,4 7,-3 -8,-20 -12,-15 -25,-27 -28,-27 -3,0 0,5 7,12 7,7 12,17 12,22 0,6 -5,5 -12,-2 -20,-20 -32,-13 -14,7 17,19 17,19 -3,14 -12,-3 -21,-10 -21,-16 0,-6 -3,-7 -6,-4 -9,9 15,37 33,37 7,0 16,-6 19,-14 z M 5095,6595 c 0,-463 -3,-584 -12,-580 -20,7 -160,102 -258,175 -265,196 -484,362 -494,374 -9,11 6,26 76,79 137,101 237,181 412,326 125,105 264,211 275,211 0,0 1,-263 1,-585 z m 855,516 c 19,30 24,-10 26,-214 2,-168 0,-217 -12,-237 -13,-24 -14,-23 -15,25 l -2,50 -6,-45 c -7,-50 -20,-59 -45,-31 -16,17 -16,20 -1,35 9,9 21,14 26,11 5,-4 9,-2 9,3 0,6 -8,13 -17,16 -10,4 -14,4 -10,0 4,-4 -2,-14 -14,-22 -11,-8 -23,-11 -27,-7 -3,3 0,11 8,16 12,8 10,9 -6,5 -14,-4 -27,1 -40,16 l -19,23 23,-19 c 12,-11 22,-14 22,-8 0,6 -5,14 -10,17 -6,4 -8,10 -5,15 3,5 -9,7 -27,5 -18,-2 -27,-1 -20,2 10,4 9,9 -4,24 -9,10 -23,19 -30,19 -8,0 -11,6 -8,15 5,11 -3,17 -25,21 -22,5 -29,10 -22,18 7,8 1,18 -20,31 -16,11 -29,23 -29,28 0,4 -9,7 -20,7 -11,0 -20,4 -20,9 0,9 48,21 85,21 14,0 25,7 28,20 3,12 14,20 26,20 17,0 21,-6 22,-32 0,-28 2,-30 9,-13 4,12 15,27 24,34 9,7 16,22 16,32 0,11 5,19 10,19 6,0 10,-18 10,-40 0,-39 32,-86 52,-74 14,9 9,34 -7,34 -11,0 -15,11 -15,38 0,29 5,39 25,48 18,9 25,9 29,0 2,-6 5,-4 5,5 1,8 -4,20 -11,27 -9,9 -9,12 0,12 7,0 13,10 13,23 1,19 2,19 6,3 4,-15 7,-16 13,-5 z m -2266,-78 c -18,-79 -123,-358 -209,-558 -26,-60 -67,-157 -90,-215 -78,-191 -187,-400 -209,-400 -4,0 -5,8 -1,18 4,9 9,28 11,42 2,14 7,41 10,61 5,30 0,42 -34,85 -68,86 -90,107 -117,107 -14,0 -25,4 -25,9 0,5 -5,6 -10,3 -6,-4 -8,-9 -6,-13 2,-4 -6,-7 -19,-7 -22,0 -22,1 -8,18 23,25 4,21 -26,-5 -32,-29 -24,-17 85,112 101,120 521,621 592,706 29,35 55,64 58,64 2,0 1,-12 -2,-27 z m 1906,7 c -12,-8 -12,-10 -1,-10 8,0 12,-2 10,-5 -3,-2 -16,-1 -29,2 -22,6 -23,7 -4,14 27,11 42,10 24,-1 z m 80,-10 c 12,-8 9,-10 -12,-10 -16,0 -28,5 -28,10 0,13 20,13 40,0 z m -80,-44 c 8,-23 4,-36 -11,-36 -6,0 -8,4 -5,9 10,15 -5,41 -23,41 -10,0 -26,6 -37,14 -17,13 -14,14 24,4 29,-7 46,-18 52,-32 z m -1713,-80 c 10,-8 52,-42 93,-75 41,-33 89,-72 105,-87 17,-14 60,-51 98,-81 37,-31 67,-60 67,-66 0,-19 -398,-403 -667,-643 l -184,-165 -87,3 c -71,2 -87,6 -90,19 -2,10 30,52 75,100 44,46 114,125 157,174 42,50 88,101 101,115 23,23 64,93 99,168 8,17 20,32 25,32 6,0 11,6 11,14 0,15 30,77 42,86 4,3 15,35 24,70 10,36 21,67 24,70 29,25 109,252 90,258 -10,4 -14,22 -5,22 3,0 13,-6 22,-14 z m 1807,-38 c -3,-4 -11,-5 -19,-1 -21,7 -19,12 4,10 11,0 18,-5 15,-9 z m -3164,-18 c 0,-62 -302,-514 -415,-620 -39,-37 -60,-72 -96,-161 -18,-46 -23,-79 -26,-216 l -5,-163 h -54 c -50,0 -203,26 -213,36 -2,2 14,26 37,53 22,26 51,69 64,95 22,46 22,47 6,114 -28,110 -22,120 152,268 177,150 270,244 270,271 0,14 17,43 44,71 23,26 68,81 99,122 87,118 137,165 137,130 z m 242,-156 c 104,-78 114,-92 98,-140 -17,-51 -36,-85 -43,-77 -4,3 -7,1 -7,-5 0,-7 -7,-12 -15,-12 -7,0 -31,-21 -52,-47 -21,-26 -52,-62 -70,-80 l -31,-33 -36,21 c -37,22 -45,21 -23,-3 6,-8 26,-29 42,-47 l 30,-33 -55,4 c -44,4 -74,16 -147,59 -51,30 -93,57 -93,60 0,3 20,28 45,55 24,27 61,74 82,104 21,30 58,82 83,116 25,33 53,75 62,92 9,18 22,32 29,32 6,0 52,-30 101,-66 z m 4837,-72 c 95,-119 190,-246 186,-250 -2,-2 -82,31 -179,72 -174,75 -209,86 -221,66 -4,-6 8,-10 29,-10 36,0 175,-67 342,-166 94,-56 150,-103 109,-91 -58,17 -187,38 -217,35 -26,-2 -36,-10 -47,-35 -8,-18 -17,-33 -21,-33 -3,0 -13,15 -23,33 -10,17 -36,52 -58,77 -22,25 -53,60 -67,79 -15,19 -35,41 -44,50 -10,8 -18,20 -18,25 0,11 -52,62 -71,68 -8,3 19,28 66,63 44,32 94,68 110,81 17,13 35,23 42,24 6,0 43,-39 82,-88 z m -1612,18 c -1,-11 -5,-20 -9,-20 -10,0 -10,4 -2,24 8,22 13,20 11,-4 z m -37,-20 c 0,-5 -2,-10 -4,-10 -3,0 -8,5 -11,10 -3,6 -1,10 4,10 6,0 11,-4 11,-10 z m 30,-14 c 0,-3 -4,-8 -10,-11 -5,-3 -10,-1 -10,4 0,6 5,11 10,11 6,0 10,-2 10,-4 z m 30,-46 c 0,-5 -4,-10 -9,-10 -6,0 -13,5 -16,10 -3,6 1,10 9,10 9,0 16,-4 16,-10 z m 2005,-161 c 136,-50 273,-160 328,-264 19,-35 21,-57 22,-170 0,-115 2,-134 22,-167 12,-21 16,-35 9,-32 -7,3 -19,-2 -26,-11 -7,-8 -21,-15 -31,-15 -12,0 -21,-10 -26,-27 l -7,-28 -7,25 c -4,16 -7,19 -8,8 -1,-10 -5,-18 -11,-18 -20,0 -9,-29 13,-33 15,-4 12,-5 -8,-4 l -30,2 -12,125 c -25,256 -50,314 -193,465 -52,55 -110,117 -129,137 l -34,37 39,-6 c 21,-3 62,-14 89,-24 z m -1885,-29 c 0,-5 -2,-10 -4,-10 -3,0 -8,5 -11,10 -3,6 -1,10 4,10 6,0 11,-4 11,-10 z m 71,-56 c 10,-9 19,-24 19,-32 0,-8 6,-12 14,-9 19,8 53,-29 34,-37 -9,-4 -8,-5 3,-3 22,3 90,-45 85,-60 -3,-7 1,-10 7,-7 10,4 208,-139 366,-264 19,-15 46,-35 60,-44 14,-9 37,-26 51,-37 l 25,-21 -45,5 c -25,2 -130,7 -235,10 -309,10 -723,39 -737,53 -7,7 -21,12 -32,11 -18,-1 -18,-2 4,-10 20,-7 16,-7 -15,-4 -22,3 -80,7 -130,11 -49,3 -119,11 -155,17 l -65,13 112,-1 c 61,0 104,-3 95,-7 -9,-4 -12,-7 -5,-7 22,-2 42,11 37,24 -6,16 33,45 61,45 11,0 27,-9 35,-21 8,-12 24,-25 35,-29 18,-8 18,-9 -5,-9 -15,-1 -31,4 -38,11 -16,16 -23,6 -8,-14 10,-14 18,-15 66,-3 48,11 51,13 25,16 -42,6 -33,23 13,27 47,4 125,61 85,62 -20,0 -23,5 -23,38 0,21 7,47 15,58 14,18 16,18 26,2 6,-11 22,-18 39,-18 29,0 30,1 30,49 0,34 4,51 15,55 12,4 15,-5 15,-49 0,-30 5,-55 10,-55 6,0 10,33 10,80 0,47 -4,80 -10,80 -5,0 -10,5 -10,10 0,6 6,10 13,10 28,1 37,15 28,48 l -10,32 36,-4 c 19,-3 44,-12 54,-22 z M 2422,6162 c -1,-7 10,-17 25,-23 16,-5 39,-21 52,-35 22,-25 23,-27 8,-57 -9,-18 -24,-88 -33,-157 -8,-69 -22,-151 -30,-182 -31,-125 -97,-445 -134,-657 -22,-123 -47,-235 -56,-250 -9,-14 -34,-39 -56,-54 -33,-23 -54,-29 -109,-32 -74,-5 -86,1 -114,55 -34,66 -30,144 30,575 55,389 76,519 87,532 5,6 19,14 31,16 18,4 17,5 -5,6 -16,0 -28,4 -28,9 0,31 27,89 56,120 19,20 34,44 34,54 0,24 81,70 150,85 65,14 96,12 92,-5 z m 423,-68 c 112,-52 147,-137 127,-302 -24,-185 -150,-863 -183,-981 -27,-97 -53,-152 -86,-182 -24,-22 -25,-22 -19,-4 40,108 167,724 165,800 0,25 -11,-15 -29,-105 -60,-313 -121,-558 -141,-571 -8,-4 -14,-14 -14,-20 0,-7 -13,-14 -30,-16 -16,-2 -41,-6 -55,-10 -14,-3 -31,-7 -37,-9 -7,-1 -25,-12 -39,-23 -16,-12 -35,-19 -45,-16 -11,4 -21,-1 -27,-11 -9,-15 -13,-16 -41,-4 -51,21 -74,62 -73,130 1,78 49,359 122,710 32,157 66,331 75,387 16,108 40,177 71,205 63,56 169,65 259,22 z m 5153,13 c 45,-25 111,-99 128,-143 9,-24 15,-47 12,-49 -3,-3 -22,2 -44,11 -91,39 -218,15 -307,-58 -39,-32 -48,-36 -53,-23 -11,27 5,78 33,107 15,15 21,28 15,28 -7,0 -12,-4 -12,-10 0,-5 -4,-10 -10,-10 -16,0 -11,32 8,46 15,12 15,15 2,24 -12,8 -9,10 13,10 22,0 27,4 27,26 0,25 0,25 -65,19 -38,-3 -65,-2 -65,4 0,25 277,40 318,18 z m -421,-27 c 14,-11 31,-20 37,-20 14,0 43,-55 63,-120 7,-25 18,-101 24,-169 5,-68 30,-234 55,-370 89,-481 124,-686 124,-719 0,-28 -5,-35 -34,-47 -56,-24 -126,-36 -206,-38 -88,-1 -132,17 -194,82 l -39,40 -48,263 c -27,145 -71,373 -99,508 -92,451 -68,546 156,594 96,20 132,19 161,-4 z M 5190,5807 c 87,-118 236,-307 360,-457 158,-190 241,-302 236,-316 -3,-8 -1,-24 4,-36 l 9,-23 v 24 c 1,21 8,15 51,-40 148,-190 218,-418 280,-913 25,-205 60,-559 55,-564 -2,-2 -59,23 -127,56 -152,75 -896,456 -904,465 -3,3 18,18 48,33 29,15 67,37 83,49 17,13 55,35 85,50 123,62 252,183 306,287 19,36 76,252 108,408 25,118 27,160 7,109 -9,-21 -10,-19 -10,19 -1,23 -6,42 -11,42 -13,0 -12,4 -50,-175 -28,-135 -48,-207 -49,-180 0,6 17,90 38,189 21,98 36,186 34,196 -8,30 -78,34 -628,34 -492,1 -513,0 -585,-20 -88,-25 -143,-26 -148,-3 -1,8 27,49 64,90 109,122 386,448 479,564 113,142 176,215 184,214 3,0 40,-46 81,-102 z m 2860,92 c 21,-6 50,-21 65,-33 24,-20 27,-29 36,-130 5,-60 18,-159 29,-220 50,-289 92,-584 87,-617 -6,-44 -31,-73 -72,-84 -34,-9 -190,-12 -219,-5 -14,3 -24,-3 -33,-20 -11,-20 -13,-21 -11,-5 1,11 -1,25 -4,31 -4,6 -19,76 -33,155 -14,79 -39,216 -56,304 -57,299 -79,430 -79,472 0,72 60,125 170,149 71,16 76,16 120,3 z m -3093,-35 c -3,-3 -12,-4 -19,-1 -8,3 -5,6 6,6 11,1 17,-2 13,-5 z m -39,-64 c -7,-11 -16,-20 -20,-20 -5,0 -8,-6 -8,-12 0,-24 -246,-334 -445,-562 -143,-164 -243,-293 -273,-351 -45,-91 -88,-221 -132,-400 -22,-90 -60,-219 -84,-286 -62,-175 -126,-343 -134,-351 -8,-8 -6,59 8,367 12,258 13,475 2,475 -10,0 -16,-98 -33,-510 -6,-151 -14,-282 -19,-291 -4,-9 -4,-22 1,-30 5,-8 9,-18 9,-24 -1,-5 -5,-2 -11,8 -5,9 -12,54 -14,100 -3,45 -8,96 -12,112 -3,17 -7,39 -8,50 -3,42 -28,146 -36,151 -5,3 -9,15 -9,27 0,13 -9,40 -20,62 -11,22 -20,48 -20,58 0,10 -4,16 -9,12 -6,-3 -19,15 -30,40 -11,25 -27,52 -36,61 -34,35 -33,37 245,409 87,116 178,230 204,255 59,55 83,101 92,171 4,30 15,70 24,89 10,19 23,54 30,77 22,74 34,80 271,124 118,23 229,43 246,46 20,3 30,9 26,16 -4,6 -1,7 6,2 12,-7 47,25 79,71 11,17 11,16 2,-3 -13,-28 1,-30 18,-3 7,11 18,20 25,20 7,0 26,14 42,30 34,35 40,38 23,10 z m 568,-170 c 56,-58 129,-139 162,-180 33,-41 69,-84 81,-94 11,-11 21,-26 21,-34 0,-8 25,-38 55,-67 30,-30 55,-56 55,-59 0,-3 13,-19 29,-36 31,-34 46,-83 33,-106 -11,-19 -99,68 -107,106 -7,34 -25,50 -25,23 0,-14 -5,-12 -28,12 -138,151 -482,585 -482,609 0,17 117,-82 206,-174 z m -3691,26 c 32,-9 93,-16 135,-16 h 76 l -45,-312 c -24,-172 -45,-315 -47,-317 -2,-2 -37,4 -78,14 -42,9 -90,15 -108,13 -30,-3 -31,-4 -15,-19 11,-12 44,-19 107,-24 86,-7 91,-9 88,-29 -3,-18 -8,-21 -43,-18 -57,5 -154,40 -192,68 -43,33 -71,82 -84,148 -10,47 -8,81 11,213 20,143 47,260 71,305 8,15 12,15 36,3 16,-8 55,-21 88,-29 z m 6765,-113 c 17,-49 38,-126 47,-173 15,-88 12,-192 -7,-198 -5,-2 -10,-8 -10,-14 0,-5 -7,-17 -16,-26 -13,-12 -41,-17 -118,-20 -56,-2 -107,-9 -114,-15 -7,-5 -15,-8 -17,-5 -6,6 -73,359 -81,429 l -6,56 68,5 c 38,3 94,15 124,26 94,33 94,34 130,-65 z M 3945,5400 c 3,-5 -3,-10 -15,-10 -27.425,0 -12.0251,20 0,20 5,0 12,-4 15,-10 z m 2430.6508,-11.6297 c -61.1128,-25.6319 -206.1831,-156.7112 -286.039,-26.7374 -19.0622,31.0258 31.6336,214.6831 144.1352,208.8234 232.3121,4.4801 138.9038,-175.086 141.9038,-182.086 z m -2405.7442,-19.188 c -199.9905,-163.8084 -606.1656,193.957 -175.3772,246.189 71.3154,8.6468 203.5614,-228.2536 175.3772,-246.189 z M 6778,5285 c 81,-5 290,-53 358,-81 39,-16 42,-35 14,-81 -17,-28 -264,-348 -280,-363 -3,-3 -17,-21 -32,-40 -37,-48 -81,-98 -73,-82 4,7 0,12 -9,12 -9,0 -16,7 -16,16 0,8 -4,12 -10,9 -5,-3 -10,-2 -10,4 0,6 -13,17 -29,26 -16,8 -69,54 -118,102 -49,49 -119,115 -156,147 -94,82 -133,132 -117,151 7,8 22,15 34,15 33,0 115,56 121,82 6,25 72,68 103,68 10,0 27,6 38,14 12,9 34,13 59,11 22,-3 77,-7 123,-10 z M 4375,4998 c 15,-69 22,-137 18,-169 -6,-42 48,-211 98,-311 49,-97 127,-205 183,-252 76,-64 231,-172 319,-224 l 78,-45 -128,-69 c -181,-98 -741,-378 -846,-423 -66,-28 -91,-35 -99,-27 -26,26 43,673 102,963 34,166 61,251 118,371 40,85 124,208 142,208 5,0 12,-10 15,-22 z m 645,-3 c 63,-7 135,-21 160,-30 65,-23 180,-77 180,-84 0,-3 -105,-3 -232,2 -260,8 -399,2 -440,-19 -15,-8 -38,-30 -52,-50 l -24,-36 -13,23 c -6,13 -31,61 -55,106 -24,45 -44,86 -44,92 0,16 380,13 520,-4 z m -513,-91 c 90,-154 89,-151 59,-227 -28,-71 -31,-95 -16,-146 15,-55 4,-48 -28,15 -58,118 -74,172 -106,360 -3,18 -8,43 -11,57 -5,19 -2,26 12,30 31,8 36,3 90,-89 z M 3250,4624 c 102,-142 160,-251 204,-384 32,-95 82,-323 101,-454 l 7,-49 -39,30 c -108,86 -623,601 -623,623 0,13 7,12 32,-1 15,-8 19,-8 13,1 -4,7 -2,10 6,8 25,-5 78,24 85,46 3,11 18,37 32,56 15,19 28,46 30,60 1,14 10,46 18,72 9,26 12,53 8,59 -5,8 -3,9 5,4 7,-4 11,-18 8,-32 -3,-15 0,-22 7,-20 6,2 11,14 10,26 -1,24 6,27 24,9 9,-9 12,-9 12,0 0,7 -4,12 -10,12 -5,0 -10,7 -10,15 0,9 -6,12 -17,8 -14,-5 -16,-3 -6,7 9,10 8,19 -4,39 l -15,26 21,-25 c 12,-14 57,-75 101,-136 z m -836,-201 c 28,-29 89,-104 136,-168 47,-64 132,-180 190,-259 58,-79 123,-169 145,-200 43,-62 114,-161 153,-214 13,-18 26,-31 29,-28 3,3 1,12 -6,19 -23,28 -62,110 -57,121 2,6 5,3 5,-8 1,-12 6,-16 17,-12 8,3 12,2 9,-4 -6,-10 8,-44 16,-39 9,5 49,-13 49,-22 0,-5 8,-9 17,-9 9,0 13,-3 10,-7 -4,-3 7,-14 23,-24 17,-11 30,-23 30,-29 0,-15 42,-60 56,-60 8,0 19,-10 25,-22 19,-36 36,-50 42,-35 2,6 8,-5 12,-25 4,-21 11,-35 16,-32 7,4 11,-5 8,-18 0,-2 7,-20 15,-40 9,-21 16,-40 16,-43 0,-5 -139,93 -150,105 -31,37 -725,503 -858,576 -53,29 -53,29 -47,69 14,84 34,272 35,313 0,36 4,44 25,52 33,12 32,21 -6,49 -17,13 -28,25 -25,28 3,3 0,15 -6,27 -11,20 -10,20 7,6 10,-8 42,-38 69,-67 z m 2682,-665 c 10,-46 1,-1328 -10,-1328 -4,0 -42,33 -84,73 -42,39 -108,101 -147,137 -38,36 -110,104 -160,151 -49,47 -160,150 -245,229 -203,188 -392,371 -388,376 2,2 73,35 158,74 85,39 182,84 215,100 102,50 156,70 167,63 7,-3 8,-1 4,5 -4,7 4,14 21,18 15,4 33,11 40,16 7,5 16,7 21,4 6,-3 15,1 22,10 7,8 19,13 27,10 9,-4 11,-1 7,6 -5,7 -2,9 9,5 16,-6 67,13 67,26 0,4 9,7 20,7 12,0 35,8 53,17 43,22 82,31 144,32 50,1 52,0 59,-31 z m 187,17 c 12,-8 32,-15 45,-15 24,0 104,-38 110,-52 2,-5 15,-8 28,-8 14,0 22,-4 19,-10 -3,-5 1,-10 10,-10 9,0 25,-9 37,-20 12,-11 28,-20 35,-20 7,0 13,-4 13,-10 0,-5 6,-10 13,-10 8,0 24,-9 37,-20 13,-11 27,-20 32,-20 15,0 22,-3 86,-32 35,-15 70,-28 77,-28 8,0 16,-4 19,-9 6,-9 -13,-72 -24,-81 -3,-3 -19,-23 -35,-45 l -28,-40 45,45 c 63,63 106,100 118,100 5,0 58,-23 117,-50 l 108,-51 -80,-77 c -44,-42 -116,-108 -160,-147 -119,-105 -235,-214 -641,-608 -72,-70 -137,-127 -144,-127 -8,0 -10,16 -6,58 3,31 5,335 5,674 1,579 2,617 19,620 49,11 124,7 145,-7 z m -2299,-51 c 5,-14 4,-15 -9,-4 -17,14 -19,20 -6,20 5,0 12,-7 15,-16 z m -401,-114 c 49,-72 131,-160 334,-360 147,-146 403,-400 568,-566 216,-216 308,-302 329,-306 28,-6 28,-5 22,33 -13,80 -100,325 -156,435 -52,104 -60,129 -35,105 6,-5 44,-23 85,-41 95,-41 165,-74 535,-252 326,-157 445,-218 425,-218 -9,0 -10,-3 -1,-13 6,-8 8,-17 4,-21 -4,-4 0,-4 10,0 14,5 17,0 17,-22 0,-46 11,-73 31,-79 10,-4 19,-15 19,-25 0,-11 9,-24 20,-30 17,-9 18,-14 9,-32 -9,-16 -9,-23 -1,-26 6,-2 51,-35 99,-74 48,-39 112,-86 142,-105 l 54,-35 26,20 c 14,10 139,94 276,187 138,93 358,248 490,345 219,161 332,236 342,227 4,-4 -81,-163 -130,-242 -51,-84 -133,-180 -184,-218 -40,-29 -308,-187 -318,-187 -2,0 -108,-60 -236,-133 -129,-73 -261,-148 -294,-165 l -61,-32 -114,41 c -63,22 -317,110 -565,194 -820,280 -966,339 -1027,419 -73,94 -158,183 -255,268 -120,104 -106,80 -278,474 -117,266 -164,365 -240,499 -38,68 -21,48 58,-65 z"
       id="path1"
       style="fill:url(#linearGradient28);fill-opacity:1"
       sodipodi:nodetypes="ccccccccccccscccsccscccccccsssscccccccccccsscccccccsccccccccsccccccccccccccccccscccscccsccccsccsccscccsccccsscccccccccccsccccscccccccsccsccccccccccccccccccccssccccccccccccccccccsscscccccsccccscccccccscscsscccccccccccccsccccsccccscccsccsssscssssssccccccscccccccscscscscccccscssccsccscsssscsccsssscsscccssccccccscscssscssccccsccscccccssccscsccccsccsccccccccssscccscsccssccccssccccsccscscsssccccccccscsccsccsccsccccscsccsccccccsccsscssscssssscssccccscsccccscccccccccsscsscsccccccsccccscccccccsccssccscccccsccsscsssssccccccccscccccccccccscsccccccccccscccccscccccccccccccsssccsscsccscccsccccccccccccccccscccccccccscccccccccccccccccccccscscccccccssccccscsccsccccccssscscccccccccccccscccscscscccscsccsccscccccccccssccccsccccccccccssccscccscccccccsscsccccscscccccccccccsccscccscccccssccccccccccccccsccccccccccccsssscccccccssccsccccccssccssccccccsccccccsccccscccccsccccscccccsscccsscscssssssscsccccsscccccscccsccsccccccccccscscscscccsccccccccscccccccccc" />
    <path
       d="M5951 7054 c0 -11 3 -14 6 -6 3 7 2 16 -1 19 -3 4 -6 -2 -5 -13z"
       id="path2" />
    <path
       d="M5745 6930 c-3 -5 -1 -10 4 -10 6 0 11 5 11 10 0 6 -2 10 -4 10 -3 0 -8 -4 -11 -10z"
       id="path3" />
    <path
       d="M2530 6366 c0 -2 8 -10 18 -17 15 -13 16 -12 3 4 -13 16 -21 21 -21 13z"
       id="path4" />
    <path
       d="M6180 6290 c0 -5 5 -10 11 -10 5 0 7 5 4 10 -3 6 -8 10 -11 10 -2 0 -4 -4 -4 -10z"
       id="path5" />
    <path
       d="M6160 6260 c0 -5 5 -10 11 -10 5 0 7 5 4 10 -3 6 -8 10 -11 10 -2 0 -4 -4 -4 -10z"
       id="path6" />
    <path
       d="M6198 6243 c7 -3 16 -2 19 1 4 3 -2 6 -13 5 -11 0 -14 -3 -6 -6z"
       id="path7" />
    <path
       d="M5738 5893 c7 -3 16 -2 19 1 4 3 -2 6 -13 5 -11 0 -14 -3 -6 -6z"
       id="path8" />
    <path
       d="M5890 5885 c0 -2 9 -9 19 -14 14 -8 22 -7 31 4 11 13 8 15 -19 15 -17 0 -31 -2 -31 -5z"
       id="path9" />
    <path
       d="M5980 5870 c-20 -6 -21 -8 -5 -8 11 0 31 4 45 8 20 6 21 8 5 8 -11 0 -31 -4 -45 -8z"
       id="path10" />
    <path
       d="M2450 6086 c0 -3 9 -10 20 -16 11 -6 20 -8 20 -6 0 3 -9 10 -20 16 -11 6 -20 8 -20 6z"
       id="path11" />
    <path
       d="M7840 6015 c-13 -16 0 -21 16 -6 5 5 18 11 29 14 16 4 14 5 -6 6 -15 0 -32 -6 -39 -14z"
       id="path12" />
    <path
       d="M7800 5989 c0 -5 5 -7 10 -4 6 3 10 8 10 11 0 2 -4 4 -10 4 -5 0 -10 -5 -10 -11z"
       id="path13" />
    <path
       d="M 7560,4662 C 0,10240 0,10240 7560,4662 Z"
       id="path14"
       style="fill:#800080"
       sodipodi:nodetypes="ss" />
    <path
       d="M6098 3383 c7 -3 16 -2 19 1 4 3 -2 6 -13 5 -11 0 -14 -3 -6 -6z"
       id="path15" />
    <path
       d="M4680 2285 c0 -2 10 -10 23 -16 20 -11 21 -11 8 4 -13 16 -31 23 -31 12z"
       id="path16" />
    <path
       d="M4747 2251 c-2 -10 3 -23 14 -29 24 -15 26 -15 32 2 4 10 0 12 -14 9 -14 -4 -18 -1 -13 10 3 8 1 18 -4 21 -5 3 -12 -2 -15 -13z"
       id="path17" />
  </g>
</svg>
